<?xml version="1.0" encoding="utf-8"?>
<!DOCTYPE svg PUBLIC "-//W3C//DTD SVG 1.0//EN" "http://www.w3.org/TR/2001/REC-SVG-20010904/DTD/svg10.dtd">
<svg version="1.0" xmlns="http://www.w3.org/2000/svg" width="1563px" height="1563px" viewBox="0 0 1563 1563" preserveAspectRatio="xMidYMid meet">
 <g fill="#8b6231">
  <path d="M1020.2 1234 c-18.8 -14.1 -35.6 -37.1 -41.8 -57 l-1.9 -6 -10.5 0 c-5.8 0 -11.6 -0.3 -12.9 -0.7 l-2.3 -0.6 0.4 20.4 c0.3 16.6 0.7 21 2 23.5 1.9 3.5 4.9 5.7 9.1 6.8 1.5 0.3 2.7 1.1 2.7 1.6 0 0.6 -7.6 1 -20 1 -11 0 -20 -0.4 -20 -0.8 0 -0.5 1.7 -1.4 3.8 -2 4.6 -1.4 6.9 -3.7 8.8 -8.9 1.7 -4.9 2 -94.5 0.3 -100.8 -1.4 -5.1 -4.3 -8.2 -9.1 -9.7 -2.1 -0.6 -3.8 -1.5 -3.8 -2 0 -1.1 56.8 -1 65.9 0.2 13.2 1.7 24.1 8.6 29.4 18.3 1.9 3.5 2.2 5.8 2.2 14.2 0 12.1 -1.8 16.7 -9.6 25 -4.7 5 -15.2 11.5 -18.5 11.5 -2.4 0 -2.4 1.7 0.2 10.4 5.5 19.3 14.2 35.4 27.6 51.3 4.2 5.1 7.3 9.5 6.8 9.8 -0.4 0.3 -4.4 -2.2 -8.8 -5.5z m-42.9 -68 c18.6 -3 30.1 -15.2 30.1 -32 0 -14 -4.5 -22.3 -14.9 -27.5 -5.6 -2.8 -6.8 -3 -19.5 -3.3 -13.5 -0.4 -13.6 -0.4 -16.7 2.2 -4.5 3.8 -5.3 9 -5.3 36.6 l0 23.9 2.8 0.4 c5.3 0.8 17.8 0.7 23.5 -0.3z"/>
  <path d="M1107.6 1223.5 c-16.2 -4.1 -32.3 -17.5 -39.5 -32.6 -9.3 -19.6 -9.3 -42.2 0.2 -61.9 4.5 -9.4 17.6 -22.3 27.7 -27.2 9.9 -4.8 16.7 -6.2 27.6 -5.6 24 1.3 45.1 18.1 53.1 42.2 2.4 7.2 2.7 9.6 2.7 22.1 0 12.5 -0.3 14.9 -2.7 22.1 -5.9 17.8 -20.3 32.7 -38.2 39.3 -7.8 3 -22.5 3.7 -30.9 1.6z m26.1 -5.5 c9.7 -3.4 18.5 -11.4 23.6 -21.5 5.6 -11.2 8.5 -30.8 6.7 -45.9 -2.6 -22.7 -11.4 -38.6 -25 -45.6 -22.3 -11.4 -47.2 -1 -56.9 23.7 -7 17.8 -6.9 46.8 0.2 63.8 9.3 22.5 30.2 32.8 51.4 25.5z"/>
  <path d="M533.1 1222.3 c0 -0.5 17.5 -27.3 38.8 -59.8 l38.8 -59 -16.8 -0.3 c-25.7 -0.4 -38.6 3.3 -49 13.9 -2.7 2.8 -5.3 4.9 -5.6 4.6 -0.3 -0.3 1.3 -5.7 3.5 -11.9 l4 -11.3 41.1 -0.3 c22.6 -0.1 41.1 0 41.1 0.3 0 0.3 -16.5 25.8 -36.7 56.7 -20.1 31 -37.5 57.8 -38.6 59.7 l-2 3.4 20.9 -0.6 c22.9 -0.6 29.5 -1.7 39.2 -6.6 3.5 -1.8 8 -5.2 11 -8.5 2.8 -3.1 5.5 -5.6 6 -5.6 0.5 0 -0.9 5.9 -3.2 13 l-4.1 13 -44.2 0 c-24.4 0 -44.3 -0.3 -44.2 -0.7z"/>
  <path d="M664.1 1222.3 c0 -0.5 17.5 -27.3 38.8 -59.8 l38.8 -59 -16.8 -0.3 c-25.7 -0.4 -38.6 3.3 -49 13.9 -2.7 2.8 -5.3 4.9 -5.6 4.6 -0.3 -0.3 1.3 -5.7 3.5 -11.9 l4 -11.3 41.1 -0.3 c22.6 -0.1 41.1 0 41.1 0.3 0 0.3 -16.5 25.8 -36.7 56.7 -20.1 31 -37.5 57.8 -38.6 59.7 l-2 3.4 20.9 -0.6 c22.9 -0.6 29.5 -1.7 39.2 -6.6 3.5 -1.8 8 -5.2 11 -8.5 2.8 -3.1 5.5 -5.6 6 -5.6 0.5 0 -0.9 5.9 -3.2 13 l-4.1 13 -44.2 0 c-24.4 0 -44.3 -0.3 -44.2 -0.7z"/>
  <path d="M794 1222.1 c0 -0.5 1.3 -1.2 3 -1.6 1.6 -0.3 4.1 -1.6 5.6 -2.7 5.4 -4.3 5.4 -4.7 5.4 -57.5 0 -45.3 -0.2 -49.1 -1.9 -52.9 -1.8 -4 -6.7 -7.4 -10.5 -7.4 -0.9 0 -1.6 -0.4 -1.6 -1 0 -0.7 15.8 -1 45.3 -1 l45.4 0 1.6 10 c1 5.4 1.7 10.8 1.7 12 0 3.1 -2.6 2.4 -4.1 -1.2 -2.1 -5.1 -7.9 -10.9 -13.4 -13.4 -4.7 -2.2 -6.2 -2.4 -24.3 -2.4 l-19.4 0 -2.9 2.9 -2.9 2.9 0 21.7 0 21.6 21.6 -0.3 21.6 -0.3 2.4 -2.9 c1.4 -1.5 2.8 -4.1 3.1 -5.7 1.3 -6.8 2.3 -1.8 2.3 12.1 0 9.3 -0.4 15 -1 15 -0.5 0 -1 -0.9 -1 -2 0 -3.7 -3 -8.1 -6.5 -9.6 -2.6 -1 -8.3 -1.4 -23 -1.4 l-19.5 0 0 26.5 c0 16.8 0.4 27.3 1.1 28.8 2.3 5.1 5.1 5.7 25.6 5.7 13.9 0 20.3 -0.4 24 -1.5 6 -1.8 13.2 -7.8 16.9 -14.1 2.6 -4.4 5 -6 4 -2.6 -0.2 0.9 -1.2 6.5 -2.2 12.5 l-1.7 10.7 -47.3 0 c-28.2 0 -47.4 -0.4 -47.4 -0.9z"/>
  <path d="M922.5 862.3 c-12.3 -1.1 -48.8 -1.6 -158.4 -2.1 l-142.3 -0.7 57.8 -78 c31.7 -42.9 89.9 -121.4 129.2 -174.5 39.4 -53.1 77.2 -104.1 84.1 -113.5 7 -9.3 27.3 -36.7 45.1 -60.8 17.9 -24.1 32.6 -44.1 32.7 -44.5 0.3 -0.8 -24.2 -17.3 -34.2 -23 -69.1 -39.2 -149 -52.1 -227 -36.7 -98 19.3 -182.1 82.9 -228.5 172.8 -22 42.7 -34.2 89 -35.7 135.7 -1.8 58.3 10.6 114.8 36.1 163.6 l6.4 12.2 -9.4 9.3 c-7.7 7.6 -9.6 9.1 -10.4 7.9 -2.7 -4.2 -18.3 -35.6 -21.3 -43 -11.7 -28.3 -19.2 -56.5 -24.4 -91.5 -2.5 -17.2 -2.5 -72.5 0 -90.4 13.2 -91.9 55.3 -168 126.1 -227.5 49.2 -41.4 113.4 -69.4 178.6 -78.1 83.9 -11 170.6 8.5 239.5 54 21.6 14.2 43.9 32 42.8 33.9 -0.8 1.3 -41.1 55.9 -189.9 257.1 -132.8 179.6 -135.9 183.7 -136.8 185.3 -0.7 1.1 13.6 1.3 80.1 1 70 -0.4 82.4 -0.6 92.8 -2.1 23.6 -3.5 42.6 -9.1 55.7 -16.6 19.4 -11.1 39.3 -33.1 52.8 -58.3 l5.2 -9.8 4 0 4.1 0 -0.7 6.3 c-0.9 9 -5.3 26.3 -14.4 56.7 -8.1 26.9 -12.5 43.7 -13.7 52.3 l-0.7 4.7 -4.7 -0.2 c-2.5 0 -11.8 -0.7 -20.6 -1.5z"/>
 </g>
 <g fill="#c7b3a4">
  <path d="M381 1222.2 c0 -0.5 1.9 -1.6 4.2 -2.4 5.4 -1.7 8 -5.4 8.9 -12.6 0.9 -7.4 0.9 -86 0 -93.4 -0.9 -7.1 -3.5 -10.8 -8.9 -12.8 -2.3 -0.8 -4.2 -1.8 -4.2 -2.3 0 -0.5 13.9 -0.7 31.8 -0.4 35 0.4 37.8 0.8 50.7 7.2 19.3 9.4 30.9 28.1 32.2 51.8 1.1 19.6 -4.4 34.6 -17.6 47.7 -8.4 8.3 -16.2 12.8 -27.2 15.5 -7.9 2 -69.9 3.5 -69.9 1.7z m71.2 -7.9 c7.6 -3.6 14.8 -9.8 19 -16.3 6.5 -10.2 10.3 -31.2 8.8 -48 -2.3 -24.4 -14.7 -39.8 -36.6 -45.5 -7.8 -2 -27.4 -2 -31.3 0 -5.1 2.6 -5.2 3.2 -4.9 56.6 0.3 45.8 0.4 49.7 2.1 52.2 1 1.6 2.8 3.2 4 3.7 1.2 0.5 9 0.9 17.2 0.7 14.5 -0.2 15.2 -0.3 21.7 -3.4z"/>
  <path d="M746 1003.9 c-28.1 -2.7 -49.3 -6.6 -73.1 -13.5 -53.4 -15.5 -109.6 -48.8 -147.2 -87.1 l-5.8 -6 36.9 -50.4 c20.4 -27.7 91.7 -125.1 158.6 -216.4 l121.6 -166 -82.3 -0.3 c-51.8 -0.2 -87.1 0.1 -95.4 0.8 -17.1 1.4 -33.4 4.3 -45 8.2 -23.1 7.6 -39.8 25.5 -51.4 54.7 l-4.3 11.1 -3.8 0 -3.8 0 0 -6.2 c0 -7.8 2.1 -26.5 6.1 -55.8 2.3 -16 3.1 -26.1 3.1 -34.8 -0.1 -12.1 -0.1 -12.2 2.1 -11.7 1.2 0.3 11 1.3 21.7 2.2 16.6 1.4 41.2 1.7 165.3 2 80.1 0.2 145.7 0.7 145.7 0.9 0 0.3 -48.2 66.5 -107.2 147.2 -59 80.7 -134.8 184.4 -168.5 230.6 -33.7 46.1 -61.3 84.2 -61.3 84.7 0 1.4 21 17.7 34 26.3 45.7 30.4 97.6 48.8 150.9 53.7 8.8 0.8 22.5 1 39.5 0.6 37.6 -0.8 61 -4.8 95.4 -16.3 74.6 -25 136.7 -74.7 177.8 -142.5 52.7 -87 61.5 -194.6 23.7 -290.9 -8 -20.2 -22.3 -47.1 -33.8 -63.5 l-4.2 -6 8.2 -10.2 8.3 -10.3 5 6.8 c19 25.6 39.7 67.6 49.7 100.7 10.1 33.4 14.2 59.7 15.2 96.5 1.8 73.7 -18 142.4 -59 204 -34.5 51.8 -80.8 92.5 -137.2 120.5 -36.6 18.2 -68.5 28.1 -108.5 33.9 -23.6 3.4 -56.2 4.5 -77 2.5z"/>
 </g>
</svg>