<?xml version="1.0" standalone="no"?>
<!DOCTYPE svg PUBLIC "-//W3C//DTD SVG 20010904//EN"
 "http://www.w3.org/TR/2001/REC-SVG-20010904/DTD/svg10.dtd">
<svg version="1.0" xmlns="http://www.w3.org/2000/svg"
 width="487.000000pt" height="166.000000pt" viewBox="0 0 487.000000 166.000000"
 preserveAspectRatio="xMidYMid meet">

<g transform="translate(0.000000,166.000000) scale(0.100000,-0.100000)"
fill="#000000" stroke="none">
<path d="M729 1308 c-7 -22 -9 -70 -4 -95 l6 -33 64 0 65 0 0 65 0 65 -65 0
c-36 0 -65 -1 -66 -2z"/>
<path d="M3772 1248 l3 -63 68 -3 67 -3 0 66 0 65 -70 0 -71 0 3 -62z"/>
<path d="M377 993 c58 -170 112 -329 121 -355 l16 -48 94 0 c51 0 92 4 90 9
-1 4 -61 164 -132 355 l-130 346 -82 0 -82 0 105 -307z"/>
<path d="M3570 1180 c0 -66 -2 -120 -4 -120 -2 0 -18 13 -36 30 -36 34 -79 45
-151 38 -87 -9 -162 -91 -178 -196 l-7 -47 -13 58 c-26 120 -111 187 -236 187
-158 0 -246 -93 -248 -260 -3 -175 67 -265 221 -286 99 -13 206 38 247 117 24
45 20 49 -50 49 -58 0 -69 -3 -88 -25 -50 -58 -152 -37 -181 36 -9 22 -16 44
-16 49 0 6 70 10 184 10 l183 0 7 -41 c18 -113 111 -199 213 -199 48 0 115 31
137 61 l16 23 0 -32 0 -32 65 0 65 0 0 350 0 350 -65 0 -65 0 0 -120z m-572
-176 c22 -15 52 -63 52 -84 0 -6 -38 -10 -105 -10 l-105 0 0 26 c0 40 50 84
97 84 21 0 49 -7 61 -16z m530 -16 c25 -21 42 -74 42 -133 0 -103 -42 -158
-121 -158 -71 0 -109 55 -109 158 0 118 55 177 143 153 16 -4 36 -13 45 -20z"/>
<path d="M1485 1107 c-85 -40 -130 -111 -142 -218 -20 -197 128 -336 321 -301
108 20 174 83 202 192 32 125 -13 255 -110 314 -41 26 -59 30 -134 33 -76 4
-94 1 -137 -20z m206 -124 c50 -49 57 -173 15 -238 -34 -52 -125 -62 -175 -19
-76 63 -62 242 22 280 46 21 104 11 138 -23z"/>
<path d="M2114 1111 c-18 -11 -39 -30 -48 -42 -16 -23 -16 -23 -16 14 l0 37
-65 0 -65 0 0 -260 0 -260 64 0 65 0 3 186 3 186 28 24 c37 31 81 31 112 -1
25 -24 25 -26 25 -210 l0 -185 69 0 70 0 3 186 3 186 28 24 c45 38 98 31 122
-17 12 -21 15 -69 15 -204 l0 -175 71 0 70 0 -3 208 c-3 187 -5 210 -24 242
-56 95 -216 109 -282 25 -21 -26 -21 -26 -32 -5 -31 58 -151 81 -216 41z"/>
<path d="M4065 1110 c-47 -23 -83 -73 -92 -124 l-6 -36 67 0 c52 0 66 3 66 15
0 31 38 55 86 55 61 0 84 -14 84 -50 0 -36 -14 -44 -105 -59 -133 -22 -174
-45 -201 -108 -70 -163 113 -287 268 -183 l43 29 8 -24 c8 -24 13 -25 83 -25
74 0 87 7 59 30 -12 10 -15 45 -15 197 0 221 -5 239 -83 278 -68 33 -200 36
-262 5z m212 -311 c-7 -55 -25 -82 -69 -105 -61 -32 -118 -7 -118 52 0 42 34
70 98 79 26 3 54 10 62 16 28 17 33 9 27 -42z"/>
<path d="M726 1112 c-3 -5 -5 -122 -5 -260 l0 -252 69 0 70 0 0 260 0 260 -64
0 c-36 0 -67 -4 -70 -8z"/>
<path d="M910 1065 l0 -54 124 -3 124 -3 -134 -150 -133 -150 0 -52 -1 -53
229 0 228 0 -1 53 -1 52 -132 3 c-73 1 -133 5 -133 8 0 3 59 71 130 151 l130
146 0 53 0 54 -215 0 -215 0 0 -55z"/>
<path d="M3770 860 l0 -260 70 0 70 0 0 260 0 260 -70 0 -70 0 0 -260z"/>
<path d="M110 882 c-46 -125 -90 -242 -97 -260 l-14 -33 93 3 93 3 47 137 47
138 -39 116 c-22 64 -41 118 -43 120 -1 2 -40 -99 -87 -224z"/>
<path d="M4480 670 l0 -70 70 0 70 0 0 70 0 70 -70 0 -70 0 0 -70z"/>
</g>
</svg>
