<?xml version="1.0" standalone="no"?>
<!DOCTYPE svg PUBLIC "-//W3C//DTD SVG 20010904//EN"
 "http://www.w3.org/TR/2001/REC-SVG-20010904/DTD/svg10.dtd">
<svg version="1.0" xmlns="http://www.w3.org/2000/svg"
 width="500.000000pt" height="500.000000pt" viewBox="0 0 500.000000 500.000000"
 preserveAspectRatio="xMidYMid meet">

<g transform="translate(0.000000,500.000000) scale(0.100000,-0.100000)"
fill="#000000" stroke="none">
<path d="M2308 3894 c-3 -3 19 -76 49 -162 30 -86 142 -411 248 -722 106 -311
216 -631 245 -712 l53 -148 228 0 228 0 -29 78 c-102 278 -613 1639 -621 1654
-9 16 -27 18 -203 18 -106 0 -195 -2 -198 -6z"/>
<path d="M1887 2801 c-131 -347 -237 -636 -237 -641 0 -7 77 -9 222 -8 l222 3
115 338 114 338 -93 287 c-51 158 -96 293 -100 300 -4 8 -104 -244 -243 -617z"/>
<path d="M795 1988 c-22 -61 -163 -461 -185 -525 l-29 -83 68 0 67 0 20 63 20
62 115 3 115 3 20 -63 20 -63 67 -3 c37 -2 67 1 67 5 0 4 -47 143 -104 308
l-104 300 -76 3 c-55 2 -78 -1 -81 -10z m155 -365 c0 -2 -34 -3 -75 -3 -41 0
-75 4 -75 8 0 5 7 28 14 53 8 24 25 78 37 119 l21 74 39 -124 c21 -69 39 -126
39 -127z"/>
<path d="M1190 1945 l0 -55 60 0 60 0 0 55 0 55 -60 0 -60 0 0 -55z"/>
<path d="M3660 1894 l0 -105 -31 22 c-38 27 -113 36 -162 20 -80 -27 -135
-140 -123 -253 12 -120 74 -197 166 -206 62 -6 91 2 129 34 l31 26 0 -26 c0
-25 2 -26 55 -26 l55 0 0 310 0 310 -60 0 -60 0 0 -106z m-57 -165 c59 -27 78
-145 35 -209 -65 -95 -178 -37 -178 90 0 95 69 153 143 119z"/>
<path d="M3832 1948 l3 -53 63 -3 62 -3 0 56 0 55 -66 0 -65 0 3 -52z"/>
<path d="M1850 1824 c-86 -37 -134 -116 -134 -219 0 -151 97 -243 248 -233 85
5 138 40 179 118 26 50 28 62 24 127 -3 58 -10 82 -33 120 -55 89 -187 129
-284 87z m135 -88 c44 -19 65 -61 65 -131 0 -67 -20 -109 -60 -130 -36 -19
-63 -19 -99 0 -85 43 -78 217 10 262 31 16 42 16 84 -1z"/>
<path d="M2390 1833 c-8 -3 -27 -17 -42 -31 l-28 -26 0 27 c0 26 -2 27 -60 27
l-60 0 0 -225 0 -225 59 0 60 0 3 144 c3 128 5 148 24 173 23 31 43 38 79 29
35 -9 45 -58 45 -213 l0 -133 60 0 60 0 0 140 c0 178 13 210 85 210 47 0 55
-31 55 -197 l0 -153 60 0 60 0 0 175 c0 198 -11 239 -72 271 -51 26 -132 15
-171 -24 l-31 -31 -38 34 c-33 30 -45 35 -86 34 -26 0 -54 -3 -62 -6z"/>
<path d="M3001 1819 c-88 -45 -136 -158 -113 -267 17 -79 50 -125 116 -157 49
-24 65 -27 129 -23 63 3 80 8 111 32 33 25 76 80 76 97 0 3 -25 9 -56 13 -53
6 -57 5 -84 -24 -45 -48 -131 -35 -158 25 -25 55 -26 55 148 55 l160 0 0 49
c0 66 -42 146 -97 185 -35 24 -54 30 -115 33 -61 4 -80 1 -117 -18z m161 -80
c16 -9 48 -64 48 -84 0 -3 -45 -5 -100 -5 -95 0 -100 1 -100 21 0 11 13 34 29
50 32 31 84 39 123 18z"/>
<path d="M4109 1831 c-43 -14 -76 -40 -87 -69 -24 -65 -27 -62 38 -62 46 0 60
3 60 15 0 21 37 37 82 37 48 -1 68 -16 68 -52 0 -31 10 -27 -155 -60 -47 -10
-68 -20 -97 -50 -32 -32 -38 -44 -38 -81 0 -57 30 -106 77 -126 52 -21 144
-14 183 15 36 27 40 27 40 2 0 -18 7 -20 58 -20 l57 0 -3 167 c-4 190 -16 233
-74 267 -36 22 -164 32 -209 17z m161 -277 c0 -51 -44 -94 -99 -94 -45 0 -71
20 -71 54 0 31 20 47 83 62 83 20 87 19 87 -22z"/>
<path d="M1190 1605 l0 -225 60 0 60 0 0 225 0 225 -60 0 -60 0 0 -225z"/>
<path d="M1360 1780 l0 -50 101 0 101 0 -116 -124 -116 -123 0 -52 0 -51 195
0 195 0 0 50 0 50 -121 0 -120 0 115 126 c115 125 116 127 116 175 l0 49 -175
0 -175 0 0 -50z"/>
<path d="M3830 1605 l0 -225 65 0 65 0 0 225 0 225 -65 0 -65 0 0 -225z"/>
</g>
</svg>
